<svg xmlns="http://www.w3.org/2000/svg" viewBox="0 0 800 500">
  <defs>
    <linearGradient id="sky3" x1="0" y1="0" x2="0" y2="1">
      <stop offset="0%" stop-color="#d9b87a"/>
      <stop offset="100%" stop-color="#5d4922"/>
    </linearGradient>
  </defs>
  <rect width="800" height="500" fill="url(#sky3)"/>
  <rect y="430" width="800" height="70" fill="#0b1320"/>
  <!-- main residence -->
  <g>
    <rect x="220" y="120" width="360" height="310" fill="#0f1c2f" stroke="#e7c674" stroke-width="2"/>
    <rect x="240" y="140" width="320" height="40" fill="#152339"/>
    <text x="400" y="168" text-anchor="middle" font-family="Georgia, serif" font-size="20" fill="#e7c674" letter-spacing="3">İZYAP RESIDENCE</text>
    <!-- balcony floors -->
    <g fill="#152339" stroke="#e7c674" stroke-width="1">
      <rect x="240" y="200" width="320" height="40"/>
      <rect x="240" y="250" width="320" height="40"/>
      <rect x="240" y="300" width="320" height="40"/>
      <rect x="240" y="350" width="320" height="40"/>
      <rect x="240" y="400" width="320" height="30"/>
    </g>
    <!-- windows on each floor -->
    <g fill="#e7c674" opacity=".75">
      <rect x="255" y="210" width="25" height="22"/><rect x="290" y="210" width="25" height="22"/><rect x="325" y="210" width="25" height="22"/><rect x="360" y="210" width="25" height="22"/><rect x="395" y="210" width="25" height="22"/><rect x="430" y="210" width="25" height="22"/><rect x="465" y="210" width="25" height="22"/><rect x="500" y="210" width="25" height="22"/><rect x="535" y="210" width="25" height="22"/>
      <rect x="255" y="260" width="25" height="22"/><rect x="290" y="260" width="25" height="22" opacity=".4"/><rect x="325" y="260" width="25" height="22"/><rect x="360" y="260" width="25" height="22"/><rect x="395" y="260" width="25" height="22"/><rect x="430" y="260" width="25" height="22"/><rect x="465" y="260" width="25" height="22" opacity=".4"/><rect x="500" y="260" width="25" height="22"/><rect x="535" y="260" width="25" height="22"/>
      <rect x="255" y="310" width="25" height="22"/><rect x="290" y="310" width="25" height="22"/><rect x="325" y="310" width="25" height="22"/><rect x="360" y="310" width="25" height="22" opacity=".4"/><rect x="395" y="310" width="25" height="22"/><rect x="430" y="310" width="25" height="22"/><rect x="465" y="310" width="25" height="22"/><rect x="500" y="310" width="25" height="22"/><rect x="535" y="310" width="25" height="22" opacity=".4"/>
      <rect x="255" y="360" width="25" height="22"/><rect x="290" y="360" width="25" height="22"/><rect x="325" y="360" width="25" height="22"/><rect x="360" y="360" width="25" height="22"/><rect x="395" y="360" width="25" height="22" opacity=".4"/><rect x="430" y="360" width="25" height="22"/><rect x="465" y="360" width="25" height="22"/><rect x="500" y="360" width="25" height="22"/><rect x="535" y="360" width="25" height="22"/>
    </g>
    <!-- entrance -->
    <rect x="370" y="400" width="60" height="30" fill="#e7c674" opacity=".9"/>
  </g>
  <!-- side buildings -->
  <rect x="60" y="220" width="140" height="210" fill="#0a1426" stroke="#e7c674" stroke-width="1.5"/>
  <rect x="600" y="240" width="140" height="190" fill="#0a1426" stroke="#e7c674" stroke-width="1.5"/>
  <g fill="#e7c674" opacity=".6">
    <rect x="80" y="240" width="14" height="18"/><rect x="105" y="240" width="14" height="18"/><rect x="130" y="240" width="14" height="18"/><rect x="155" y="240" width="14" height="18"/><rect x="180" y="240" width="14" height="18"/>
    <rect x="80" y="270" width="14" height="18"/><rect x="105" y="270" width="14" height="18"/><rect x="130" y="270" width="14" height="18"/><rect x="155" y="270" width="14" height="18"/><rect x="180" y="270" width="14" height="18"/>
    <rect x="80" y="300" width="14" height="18"/><rect x="105" y="300" width="14" height="18" opacity=".5"/><rect x="130" y="300" width="14" height="18"/><rect x="155" y="300" width="14" height="18"/><rect x="180" y="300" width="14" height="18"/>
    <rect x="620" y="260" width="14" height="18"/><rect x="645" y="260" width="14" height="18"/><rect x="670" y="260" width="14" height="18"/><rect x="695" y="260" width="14" height="18"/><rect x="720" y="260" width="14" height="18"/>
    <rect x="620" y="290" width="14" height="18"/><rect x="645" y="290" width="14" height="18"/><rect x="670" y="290" width="14" height="18" opacity=".5"/><rect x="695" y="290" width="14" height="18"/><rect x="720" y="290" width="14" height="18"/>
    <rect x="620" y="320" width="14" height="18"/><rect x="645" y="320" width="14" height="18"/><rect x="670" y="320" width="14" height="18"/><rect x="695" y="320" width="14" height="18"/><rect x="720" y="320" width="14" height="18"/>
  </g>
</svg>
