<svg xmlns="http://www.w3.org/2000/svg" viewBox="0 0 800 500">
  <defs>
    <linearGradient id="sky4" x1="0" y1="0" x2="0" y2="1">
      <stop offset="0%" stop-color="#0b1320"/>
      <stop offset="100%" stop-color="#26385d"/>
    </linearGradient>
  </defs>
  <rect width="800" height="500" fill="url(#sky4)"/>
  <rect y="420" width="800" height="80" fill="#0b1320"/>
  <!-- glass commercial tower (slanted top) -->
  <polygon points="280,80 520,80 560,420 240,420" fill="#162542" stroke="#e7c674" stroke-width="2"/>
  <!-- mirror lines -->
  <g stroke="#e7c674" stroke-width="1" opacity=".4">
    <line x1="260" y1="140" x2="540" y2="140"/>
    <line x1="260" y1="200" x2="545" y2="200"/>
    <line x1="255" y1="260" x2="550" y2="260"/>
    <line x1="250" y1="320" x2="555" y2="320"/>
    <line x1="245" y1="380" x2="560" y2="380"/>
    <line x1="320" y1="80" x2="320" y2="420"/>
    <line x1="360" y1="80" x2="360" y2="420"/>
    <line x1="400" y1="80" x2="400" y2="420"/>
    <line x1="440" y1="80" x2="440" y2="420"/>
    <line x1="480" y1="80" x2="480" y2="420"/>
  </g>
  <!-- lit windows random -->
  <g fill="#e7c674" opacity=".7">
    <rect x="290" y="150" width="22" height="40"/>
    <rect x="370" y="150" width="22" height="40"/>
    <rect x="450" y="150" width="22" height="40"/>
    <rect x="330" y="210" width="22" height="40"/>
    <rect x="410" y="210" width="22" height="40"/>
    <rect x="490" y="210" width="22" height="40"/>
    <rect x="290" y="270" width="22" height="40"/>
    <rect x="370" y="270" width="22" height="40"/>
    <rect x="450" y="270" width="22" height="40"/>
    <rect x="330" y="330" width="22" height="40"/>
    <rect x="410" y="330" width="22" height="40"/>
    <rect x="490" y="330" width="22" height="40"/>
  </g>
  <!-- ground store fronts -->
  <rect x="240" y="380" width="320" height="40" fill="#0b1320" stroke="#e7c674"/>
  <text x="400" y="408" text-anchor="middle" font-family="Helvetica, Arial, sans-serif" font-weight="700" font-size="14" fill="#e7c674" letter-spacing="4">İZYAP BUSINESS CENTER</text>
  <!-- side small commercial -->
  <rect x="80" y="280" width="130" height="140" fill="#0f1c2f" stroke="#e7c674"/>
  <rect x="590" y="260" width="150" height="160" fill="#0f1c2f" stroke="#e7c674"/>
  <g fill="#e7c674" opacity=".6">
    <rect x="100" y="300" width="18" height="22"/><rect x="125" y="300" width="18" height="22"/><rect x="150" y="300" width="18" height="22"/><rect x="175" y="300" width="18" height="22"/>
    <rect x="100" y="335" width="18" height="22"/><rect x="125" y="335" width="18" height="22"/><rect x="150" y="335" width="18" height="22"/><rect x="175" y="335" width="18" height="22"/>
    <rect x="100" y="370" width="18" height="22"/><rect x="125" y="370" width="18" height="22"/><rect x="150" y="370" width="18" height="22"/><rect x="175" y="370" width="18" height="22"/>
    <rect x="610" y="280" width="18" height="22"/><rect x="635" y="280" width="18" height="22"/><rect x="660" y="280" width="18" height="22"/><rect x="685" y="280" width="18" height="22"/><rect x="710" y="280" width="18" height="22"/>
    <rect x="610" y="320" width="18" height="22"/><rect x="635" y="320" width="18" height="22"/><rect x="660" y="320" width="18" height="22"/><rect x="685" y="320" width="18" height="22"/><rect x="710" y="320" width="18" height="22"/>
    <rect x="610" y="360" width="18" height="22"/><rect x="635" y="360" width="18" height="22"/><rect x="660" y="360" width="18" height="22"/><rect x="685" y="360" width="18" height="22"/><rect x="710" y="360" width="18" height="22"/>
  </g>
</svg>
